<svg height="66.815" width="319.92999267578125" viewBox="0 0 319.92999267578125 66.815" xmlns="http://www.w3.org/2000/svg" data-logo="logo">
        <g transform="translate(0, 13.407499999999999)&#10;    rotate(0 20 20)" id="logogram"><path fill="url(#paint0_linear_7697_8782)" d="M24 0H16V12.0632C15.9663 14.2434 14.1885 16 12.0005 16H0V24H8.68629C10.808 24 12.8429 23.1571 14.3431 21.6569L21.6569 14.3431C23.1571 12.8429 24 10.808 24 8.68629V0Z"/><path fill="url(#paint1_linear_7697_8782)" d="M16 40H24V27.9368C24.0337 25.7566 25.8115 24 27.9995 24H40V16H31.3137C29.192 16 27.1571 16.8429 25.6569 18.3431L18.3431 25.6569C16.8429 27.1571 16 29.192 16 31.3137V40Z"/></g>
        <g transform="translate(46, 0.5)" id="logotype"><path d="M27.78 13.54L27.78 13.54Q32.32 13.54 35.96 15.02Q39.60 16.51 42.22 19.24Q44.83 21.98 46.22 25.72Q47.61 29.46 47.61 34.00L47.61 34.00Q47.61 38.31 46.22 41.97Q44.83 45.63 42.24 48.33Q39.66 51.02 36.03 52.52Q32.40 54.02 27.95 54.02L27.95 54.02Q23.46 54.02 19.83 52.53Q16.20 51.05 13.60 48.31Q11.00 45.58 9.60 41.82Q8.20 38.07 8.20 33.53L8.20 33.53Q8.20 29.24 9.59 25.58Q10.98 21.93 13.56 19.22Q16.15 16.51 19.75 15.02Q23.35 13.54 27.78 13.54ZM38.86 38.89L38.86 38.89Q38.86 35.23 38.19 31.89Q37.52 28.55 36.30 25.73Q35.09 22.91 33.47 20.83Q31.85 18.73 29.94 17.57Q28.03 16.40 25.96 16.40L25.96 16.40Q23.27 16.40 21.25 17.85Q19.23 19.31 18.13 22.05Q17.03 24.79 17.03 28.64L17.03 28.64Q17.03 32.32 17.70 35.67Q18.38 39.03 19.59 41.85Q20.80 44.67 22.40 46.77Q24.01 48.88 25.92 50.03Q27.84 51.19 29.87 51.19L29.87 51.19Q32.62 51.19 34.64 49.73Q36.66 48.27 37.76 45.53Q38.86 42.80 38.86 38.89ZM60.51 28.20L60.51 28.20L60.51 31.27L60.84 31.93L60.84 61.41Q60.84 62.27 61.07 62.67Q61.30 63.06 61.80 63.20L61.80 63.20L63.26 63.51Q63.80 63.67 64.05 63.96Q64.30 64.25 64.30 64.69L64.30 64.69Q64.30 65.21 63.93 65.51Q63.56 65.81 62.76 65.81L62.76 65.81L51.51 65.81Q50.74 65.81 50.39 65.51Q50.03 65.21 50.03 64.69L50.03 64.69Q50.03 64.28 50.28 63.99Q50.52 63.70 51.05 63.51L51.05 63.51L52.12 63.23Q52.61 63.06 52.85 62.67Q53.08 62.27 53.08 61.41L53.08 61.41L53.08 32.81Q53.08 32.13 52.87 31.82Q52.67 31.52 52.20 31.44L52.20 31.44L50.74 31.33Q50.25 31.22 50.03 30.97Q49.81 30.73 49.81 30.34L49.81 30.34Q49.81 29.87 50.07 29.63Q50.33 29.38 51.07 29.07L51.07 29.07L55.89 27.18Q56.88 26.77 57.52 26.61Q58.17 26.46 58.66 26.46L58.66 26.46Q59.60 26.46 60.05 26.94Q60.51 27.43 60.51 28.20ZM59.24 35.10L59.24 35.10L58.03 33.53Q60.20 30.12 63.04 28.22Q65.87 26.32 69.33 26.32L69.33 26.32Q72.58 26.32 75.14 27.98Q77.69 29.63 79.16 32.55Q80.64 35.48 80.64 39.30L80.64 39.30Q80.64 43.68 78.89 46.91Q77.14 50.14 74.15 51.91Q71.15 53.69 67.44 53.69L67.44 53.69Q64.16 53.69 61.63 52.15Q59.10 50.61 57.45 47.69L57.45 47.69L59.35 46.10Q60.70 48.35 62.39 49.45Q64.08 50.55 66.03 50.55L66.03 50.55Q67.93 50.55 69.40 49.45Q70.87 48.35 71.72 46.03Q72.58 43.70 72.58 40.13L72.58 40.13Q72.58 36.77 71.75 34.58Q70.93 32.38 69.48 31.29Q68.04 30.20 66.20 30.20L66.20 30.20Q64.22 30.20 62.47 31.40Q60.73 32.59 59.24 35.10ZM108.30 36.75L108.30 36.75Q108.30 38.20 107.47 38.99Q106.65 39.77 105.05 39.77L105.05 39.77L87.89 39.77L87.89 37.68L99.14 37.68Q100.55 37.68 100.55 36.42L100.55 36.42Q100.55 32.79 99.22 30.90Q97.91 29.02 95.68 29.02L95.68 29.02Q93.97 29.02 92.65 30.07Q91.33 31.11 90.59 33.05Q89.85 34.99 89.85 37.74L89.85 37.74Q89.85 43.05 92.34 45.71Q94.83 48.38 98.98 48.38L98.98 48.38Q101.40 48.38 103.23 47.42Q105.05 46.45 106.07 44.67L106.07 44.67Q106.57 44.12 106.86 43.92Q107.14 43.73 107.45 43.73L107.45 43.73Q107.89 43.73 108.08 44.13Q108.27 44.53 108.27 45.08L108.27 45.08Q108.16 47.39 106.62 49.36Q105.08 51.32 102.47 52.51Q99.86 53.69 96.47 53.69L96.47 53.69Q92.49 53.69 89.41 52.05Q86.33 50.41 84.58 47.46Q82.83 44.50 82.83 40.54L82.83 40.54Q82.83 36.39 84.50 33.17Q86.16 29.95 89.27 28.14Q92.38 26.32 96.69 26.32L96.69 26.32Q100.38 26.32 102.98 27.66Q105.58 28.99 106.94 31.34Q108.30 33.70 108.30 36.75ZM121.53 28.20L121.53 28.20L121.53 48.60Q121.53 49.45 121.77 49.84Q122.02 50.22 122.52 50.41L122.52 50.41L123.51 50.69Q124.39 51.05 124.39 51.79L124.39 51.79Q124.39 53 122.85 53L122.85 53L112.23 53Q111.46 53 111.10 52.70Q110.75 52.40 110.75 51.87L110.75 51.87Q110.75 51.46 110.98 51.17Q111.21 50.88 111.74 50.69L111.74 50.69L112.84 50.41Q113.33 50.22 113.57 49.84Q113.80 49.45 113.80 48.60L113.80 48.60L113.80 32.84Q113.80 32.13 113.59 31.82Q113.39 31.52 112.92 31.44L112.92 31.44L111.46 31.33Q110.97 31.22 110.75 30.97Q110.53 30.73 110.53 30.34L110.53 30.34Q110.53 29.87 110.79 29.60Q111.05 29.32 111.79 29.05L111.79 29.05L116.91 27.18Q117.95 26.79 118.58 26.63Q119.22 26.46 119.79 26.46L119.79 26.46Q120.65 26.46 121.09 26.94Q121.53 27.43 121.53 28.20ZM121.80 33.36L120.70 34.33L119.44 33.03L120.51 32.07Q123.97 28.96 126.45 27.64Q128.92 26.32 131.15 26.32L131.15 26.32Q134.53 26.32 136.41 28.59Q138.27 30.86 138.69 34.63L138.69 34.63L140.23 48.52Q140.31 49.42 140.53 49.84Q140.75 50.25 141.27 50.41L141.27 50.41L142.23 50.69Q142.76 50.88 143.00 51.17Q143.25 51.46 143.25 51.87L143.25 51.87Q143.25 52.40 142.89 52.70Q142.54 53 141.74 53L141.74 53L131.01 53Q129.50 53 129.50 51.79L129.50 51.79Q129.50 51.05 130.35 50.69L130.35 50.69L131.40 50.41Q131.92 50.22 132.21 49.81Q132.50 49.40 132.39 48.52L132.39 48.52L130.96 35.76Q130.69 33.36 129.74 32.16Q128.79 30.95 126.94 30.95L126.94 30.95Q125.79 30.95 124.51 31.55Q123.23 32.16 121.80 33.36L121.80 33.36ZM178.95 42.85L178.95 42.85Q178.92 44.80 177.86 46.77Q176.80 48.74 174.81 50.39Q172.81 52.04 169.97 53.03Q167.12 54.02 163.49 54.02L163.49 54.02Q157.55 54.02 153.23 51.46Q148.92 48.90 146.57 44.38Q144.22 39.86 144.22 34.00L144.22 34.00Q144.22 29.54 145.60 25.83Q146.99 22.12 149.51 19.35Q152.02 16.59 155.41 15.06Q158.79 13.54 162.78 13.54L162.78 13.54Q165.53 13.54 167.26 14.07Q168.99 14.61 169.98 15.16Q170.97 15.71 171.55 15.71L171.55 15.71Q172.24 15.71 172.59 15.23Q172.95 14.75 173.34 14.28Q173.72 13.81 174.41 13.81L174.41 13.81Q174.90 13.81 175.23 14.13Q175.56 14.45 175.78 15.19L175.78 15.19L178.67 24.68Q178.86 25.31 178.55 25.80Q178.23 26.30 177.60 26.43L177.60 26.43Q176.94 26.57 176.42 26.31Q175.89 26.05 175.59 25.39L175.59 25.39Q174.11 22.09 172.31 20.15Q170.50 18.21 168.41 17.36Q166.32 16.51 163.91 16.51L163.91 16.51Q161.46 16.51 159.42 17.62Q157.39 18.73 155.90 20.80Q154.42 22.86 153.61 25.75Q152.79 28.64 152.79 32.24L152.79 32.24Q152.79 37.77 154.51 41.60Q156.23 45.44 159.20 47.42Q162.17 49.40 166.00 49.40L166.00 49.40Q169.65 49.40 172.36 47.65Q175.07 45.91 176.58 42.72L176.58 42.72Q176.88 42.08 177.27 41.88Q177.65 41.67 178.12 41.75L178.12 41.75Q178.53 41.81 178.74 42.10Q178.95 42.38 178.95 42.85ZM192.06 38.29L191.10 38.42Q191.10 34.44 192.23 31.74Q193.36 29.05 195.20 27.69Q197.04 26.32 199.16 26.32L199.16 26.32Q201.77 26.32 203.20 27.81Q204.63 29.29 204.63 32.07L204.63 32.07Q204.63 34.55 203.61 35.76Q202.60 36.97 200.97 36.97L200.97 36.97Q199.32 36.97 198.47 36.09Q197.62 35.21 197.62 33.64L197.62 33.64L197.62 32.65Q197.59 31.77 197.21 31.34Q196.82 30.92 195.94 30.92L195.94 30.92Q194.98 30.92 194.09 31.71Q193.19 32.51 192.63 34.14Q192.06 35.76 192.06 38.29L192.06 38.29ZM191.62 28.22L191.62 28.22L192.06 34.47L192.06 48.57Q192.06 49.37 192.38 49.74Q192.70 50.11 193.52 50.25L193.52 50.25L195.89 50.61Q196.52 50.72 196.84 51.02Q197.15 51.32 197.15 51.84L197.15 51.84Q197.15 52.40 196.75 52.70Q196.35 53 195.61 53L195.61 53L182.77 53Q182.00 53 181.64 52.70Q181.28 52.40 181.28 51.87L181.28 51.87Q181.28 51.46 181.53 51.17Q181.78 50.88 182.30 50.69L182.30 50.69L183.37 50.41Q183.87 50.25 184.10 49.85Q184.34 49.45 184.34 48.60L184.34 48.60L184.34 32.90Q184.34 32.18 184.13 31.88Q183.92 31.58 183.46 31.50L183.46 31.50L182.00 31.39Q181.50 31.27 181.28 31.03Q181.06 30.78 181.06 30.39L181.06 30.39Q181.06 29.93 181.34 29.65Q181.61 29.38 182.33 29.10L182.33 29.10L187.33 27.29Q188.68 26.77 189.31 26.61Q189.95 26.46 190.30 26.46L190.30 26.46Q190.91 26.46 191.21 26.86Q191.51 27.26 191.62 28.22ZM222.62 49.51L222.62 49.51L222.62 48.93L222.09 48.82L222.09 32.40Q222.09 30.48 221.12 29.42Q220.14 28.36 218.35 28.36L218.35 28.36Q216.73 28.36 215.85 29.05Q214.97 29.73 214.97 30.75L214.97 30.75L214.97 33.17Q214.97 34.82 213.87 35.72Q212.77 36.61 210.76 36.61L210.76 36.61Q209.06 36.61 208.18 35.80Q207.30 34.99 207.30 33.59L207.30 33.59Q207.30 31.85 208.73 30.19Q210.16 28.52 212.94 27.44Q215.71 26.35 219.78 26.35L219.78 26.35Q224.84 26.35 227.31 28.40Q229.77 30.45 229.77 33.94L229.77 33.94L229.77 48.24Q229.77 49.01 230.08 49.40Q230.40 49.78 230.98 49.78L230.98 49.78Q231.58 49.78 231.88 49.49Q232.19 49.20 232.41 48.90L232.41 48.90Q232.54 48.71 232.71 48.59Q232.87 48.46 233.12 48.46L233.12 48.46Q233.45 48.46 233.62 48.71Q233.78 48.96 233.78 49.37L233.78 49.37Q233.78 50.30 233.14 51.30Q232.49 52.28 231.21 52.99Q229.93 53.69 228.01 53.69L228.01 53.69Q225.56 53.69 224.09 52.57Q222.62 51.46 222.62 49.51ZM206.14 47.25L206.14 47.25Q206.14 43.81 209.21 41.70Q212.28 39.58 217.78 39.58L217.78 39.58Q219.56 39.58 221.01 39.88Q222.45 40.19 223.50 40.71L223.50 40.71L222.89 42.47Q221.96 42.03 220.98 41.78Q220.00 41.53 218.88 41.53L218.88 41.53Q216.59 41.53 215.32 42.70Q214.04 43.87 214.04 45.93L214.04 45.93Q214.04 47.99 215.12 49.09Q216.21 50.20 217.94 50.20L217.94 50.20Q219.43 50.20 220.79 49.52Q222.15 48.85 223.08 47.64L223.08 47.64L223.69 49.20Q222.18 51.35 219.63 52.52Q217.09 53.69 214.23 53.69L214.23 53.69Q210.63 53.69 208.39 51.90Q206.14 50.11 206.14 47.25ZM247.12 30.50L247.12 48.57Q247.12 49.37 247.44 49.81Q247.75 50.25 248.44 50.33L248.44 50.33L251.24 50.66Q251.88 50.72 252.17 51.05Q252.45 51.38 252.45 51.84L252.45 51.84Q252.45 53 251.00 53L251.00 53L237.03 53Q236.37 53 235.98 52.70Q235.60 52.40 235.60 51.90L235.60 51.90Q235.60 51.41 235.89 51.10Q236.17 50.80 236.78 50.63L236.78 50.63L237.93 50.39Q238.70 50.17 239.05 49.76Q239.39 49.34 239.39 48.63L239.39 48.63L239.39 32.24Q239.39 31.69 239.12 31.33Q238.84 30.97 238.10 30.70L238.10 30.70L236.70 30.26Q235.79 29.90 235.46 29.57Q235.13 29.24 235.13 28.83L235.13 28.83Q235.13 28.36 235.47 28.07Q235.82 27.78 236.53 27.78L236.53 27.78L241.07 27.78L239.42 28.72L239.42 27.84Q239.42 27.04 238.98 26.31Q238.54 25.58 237.96 24.77Q237.38 23.96 236.94 22.90Q236.50 21.84 236.50 20.41L236.50 20.41Q236.50 17.06 238.97 14.99Q241.43 12.93 245.77 12.93L245.77 12.93Q248.58 12.93 250.50 13.81Q252.43 14.69 253.43 16.16Q254.43 17.63 254.43 19.34L254.43 19.34Q254.43 21.10 253.51 22.01Q252.59 22.91 251.11 22.91L251.11 22.91Q249.48 22.91 248.52 21.93Q247.56 20.94 247.56 19.28L247.56 19.28L247.56 17.63Q247.56 16.31 246.84 15.64Q246.13 14.97 244.86 14.97L244.86 14.97Q243.35 14.99 242.57 15.92Q241.78 16.84 241.78 18.54L241.78 18.54Q241.78 19.81 242.25 20.83Q242.72 21.84 243.45 22.70Q244.18 23.55 244.89 24.34Q245.61 25.14 246.07 25.97Q246.54 26.79 246.54 27.73L246.54 27.73L246.54 28.99L245.66 27.78L252.10 27.78Q252.76 27.78 253.11 28.04Q253.47 28.30 253.47 28.80L253.47 28.80Q253.47 29.52 252.76 30.01Q252.04 30.50 250.45 30.50L250.45 30.50L247.12 30.50ZM256.50 29.65L256.50 29.65L255.23 29.27Q254.57 29.05 254.30 28.76Q254.02 28.47 254.02 28.09L254.02 28.09Q254.02 27.54 254.39 27.25Q254.76 26.96 255.40 26.96L255.40 26.96L257.07 26.96Q257.73 26.96 258.17 26.71Q258.61 26.46 259.08 25.83L259.08 25.83L262.08 21.62Q262.66 20.91 263.18 20.58Q263.70 20.25 264.22 20.25L264.22 20.25Q264.80 20.25 265.13 20.60Q265.46 20.96 265.46 21.65L265.46 21.65L265.46 45.16Q265.46 47.09 266.22 48.10Q266.97 49.12 268.32 49.12L268.32 49.12Q269.34 49.12 269.90 48.72Q270.47 48.33 270.80 47.80Q271.13 47.28 271.44 46.88Q271.76 46.48 272.25 46.45L272.25 46.45Q272.67 46.45 272.90 46.73Q273.13 47.01 273.13 47.64L273.13 47.64Q273.11 49.20 272.10 50.55Q271.10 51.90 269.31 52.74Q267.52 53.58 265.24 53.58L265.24 53.58Q261.72 53.58 259.73 51.80Q257.73 50.03 257.73 46.45L257.73 46.45L257.73 31.27Q257.73 30.56 257.45 30.22Q257.16 29.87 256.50 29.65ZM269.86 29.68L262.41 29.68L262.41 26.96L271.51 26.96Q272.14 26.96 272.52 27.22Q272.89 27.48 272.89 27.98L272.89 27.98Q272.89 28.69 272.17 29.18Q271.46 29.68 269.86 29.68L269.86 29.68Z" fill="#ffffff"/></g>
        <defs xmlns="http://www.w3.org/2000/svg">
<linearGradient gradientUnits="userSpaceOnUse" y2="33.7931" x2="20" y1="-0.997096" x1="20" id="paint0_linear_7697_8782">
<stop stop-color="#75D8FC"/>
<stop stop-color="#0072E5" offset="1"/>
</linearGradient>
<linearGradient gradientUnits="userSpaceOnUse" y2="33.7931" x2="20" y1="-0.997096" x1="20" id="paint1_linear_7697_8782">
<stop stop-color="#75D8FC"/>
<stop stop-color="#0072E5" offset="1"/>
</linearGradient>
</defs>
      </svg>